<svg width="98" height="98" viewBox="0 0 98 98" fill="none" xmlns="http://www.w3.org/2000/svg">
<g id="btn_channel_add">
<rect id="Rectangle 2860506" width="98" height="98" rx="49" fill="#E3F2FF"/>
<g id="icon/plus">
<path id="Vector" d="M66.625 49C66.625 49.2984 66.5065 49.5845 66.2955 49.7955C66.0845 50.0065 65.7984 50.125 65.5 50.125H50.125V65.5C50.125 65.7984 50.0065 66.0845 49.7955 66.2955C49.5845 66.5065 49.2984 66.625 49 66.625C48.7016 66.625 48.4155 66.5065 48.2045 66.2955C47.9935 66.0845 47.875 65.7984 47.875 65.5V50.125H32.5C32.2016 50.125 31.9155 50.0065 31.7045 49.7955C31.4935 49.5845 31.375 49.2984 31.375 49C31.375 48.7016 31.4935 48.4155 31.7045 48.2045C31.9155 47.9935 32.2016 47.875 32.5 47.875H47.875V32.5C47.875 32.2016 47.9935 31.9155 48.2045 31.7045C48.4155 31.4935 48.7016 31.375 49 31.375C49.2984 31.375 49.5845 31.4935 49.7955 31.7045C50.0065 31.9155 50.125 32.2016 50.125 32.5V47.875H65.5C65.7984 47.875 66.0845 47.9935 66.2955 48.2045C66.5065 48.4155 66.625 48.7016 66.625 49Z" fill="#8FC9FF"/>
</g>
</g>
</svg>
