<svg width="16" height="16" viewBox="0 0 16 16" fill="none" xmlns="http://www.w3.org/2000/svg">
<path fill-rule="evenodd" clip-rule="evenodd" d="M2 1H14C14.5523 1 15 1.44772 15 2V14C15 14.5523 14.5523 15 14 15H2C1.44772 15 1 14.5523 1 14V2C1 1.44772 1.44772 1 2 1ZM0 2C0 0.895431 0.895431 0 2 0H14C15.1046 0 16 0.895431 16 2V14C16 15.1046 15.1046 16 14 16H2C0.895431 16 0 15.1046 0 14V2ZM11.4978 4.13105L6.20628 9.42253L4.50224 7.71849C4.33782 7.55407 4.12855 7.47186 3.87444 7.47186C3.62033 7.47186 3.41106 7.55407 3.24664 7.71849C3.08221 7.88292 3 8.09219 3 8.3463C3 8.60041 3.08221 8.80968 3.24664 8.9741L5.57848 11.3059C5.75785 11.4853 5.96711 11.575 6.20628 11.575C6.44544 11.575 6.65471 11.4853 6.83408 11.3059L12.7534 5.38666C12.9178 5.22223 13 5.01296 13 4.75885C13 4.50474 12.9178 4.29548 12.7534 4.13105C12.5889 3.96663 12.3797 3.88441 12.1256 3.88441C11.8714 3.88441 11.6622 3.96663 11.4978 4.13105Z" fill="white"/>
</svg>
