<svg width="12" height="12" viewBox="0 0 12 12" fill="none" xmlns="http://www.w3.org/2000/svg">
	<mask id="mask0_705_1341" style="mask-type:luminance" maskUnits="userSpaceOnUse" x="1" y="2" width="10" height="8">
		<path d="M3.91849 9.30608H8.10897L9.25183 5.30608L7.34706 6.25846L6.01373 3.5918L4.6804 6.25846L2.77563 5.30608L3.91849 9.30608Z" fill="white" stroke="white" stroke-width="0.761905" stroke-linecap="round" stroke-linejoin="round" />
		<path d="M2.77559 5.30594C3.09118 5.30594 3.34702 5.05011 3.34702 4.73451C3.34702 4.41892 3.09118 4.16309 2.77559 4.16309C2.46 4.16309 2.20416 4.41892 2.20416 4.73451C2.20416 5.05011 2.46 5.30594 2.77559 5.30594Z" fill="white" stroke="white" stroke-width="0.761905" />
		<path d="M6.01369 3.59208C6.32928 3.59208 6.58512 3.33624 6.58512 3.02065C6.58512 2.70506 6.32928 2.44922 6.01369 2.44922C5.6981 2.44922 5.44226 2.70506 5.44226 3.02065C5.44226 3.33624 5.6981 3.59208 6.01369 3.59208Z" fill="white" stroke="white" stroke-width="0.761905" />
		<path d="M9.25179 5.30594C9.56738 5.30594 9.82322 5.05011 9.82322 4.73451C9.82322 4.41892 9.56738 4.16309 9.25179 4.16309C8.9362 4.16309 8.68036 4.41892 8.68036 4.73451C8.68036 5.05011 8.9362 5.30594 9.25179 5.30594Z" fill="white" stroke="white" stroke-width="0.761905" />
	</mask>
	<g mask="url(#mask0_705_1341)">
		<path d="M1.44226 1.30664H10.5851V10.4495H1.44226V1.30664Z" fill="#1F94FF" />
	</g>
</svg>
