<svg width="24" height="24" viewBox="0 0 24 24" fill="none" xmlns="http://www.w3.org/2000/svg">
<g id="icon/camera" clip-path="url(#clip0_1087_5708)">
<path id="Vector" d="M12.4999 15.3504C14.0739 15.3504 15.3499 14.0744 15.3499 12.5004C15.3499 10.9264 14.0739 9.65039 12.4999 9.65039C10.9259 9.65039 9.6499 10.9264 9.6499 12.5004C9.6499 14.0744 10.9259 15.3504 12.4999 15.3504Z" fill="#0A0A0A" fill-opacity="0.45"/>
<path id="Vector_2" d="M20.1 4.9H17.0885L15.9105 3.6175C15.559 3.228 15.046 3 14.514 3H10.486C9.954 3 9.441 3.228 9.08 3.6175L7.9115 4.9H4.9C3.855 4.9 3 5.755 3 6.8V18.2C3 19.245 3.855 20.1 4.9 20.1H20.1C21.145 20.1 22 19.245 22 18.2V6.8C22 5.755 21.145 4.9 20.1 4.9ZM12.5 17.25C9.878 17.25 7.75 15.122 7.75 12.5C7.75 9.878 9.878 7.75 12.5 7.75C15.122 7.75 17.25 9.878 17.25 12.5C17.25 15.122 15.122 17.25 12.5 17.25Z" fill="#0A0A0A" fill-opacity="0.45"/>
</g>
<defs>
<clipPath id="clip0_1087_5708">
<rect width="24" height="24" fill="white"/>
</clipPath>
</defs>
</svg>
