<svg width="16" height="16" viewBox="0 0 16 16" fill="none" xmlns="http://www.w3.org/2000/svg">
<g filter="url(#filter0_d_1064_14135)">
<path d="M12.8537 12.1465C12.9002 12.193 12.937 12.2481 12.9622 12.3088C12.9873 12.3695 13.0003 12.4346 13.0003 12.5003C13.0003 12.566 12.9873 12.631 12.9622 12.6917C12.937 12.7524 12.9002 12.8076 12.8537 12.854C12.8073 12.9005 12.7521 12.9373 12.6914 12.9625C12.6307 12.9876 12.5657 13.0006 12.5 13.0006C12.4343 13.0006 12.3692 12.9876 12.3085 12.9625C12.2478 12.9373 12.1927 12.9005 12.1462 12.854L7.99997 8.70715L3.85372 12.854C3.7599 12.9478 3.63265 13.0006 3.49997 13.0006C3.36729 13.0006 3.24004 12.9478 3.14622 12.854C3.0524 12.7602 2.99969 12.633 2.99969 12.5003C2.99969 12.3676 3.0524 12.2403 3.14622 12.1465L7.2931 8.00028L3.14622 3.85403C3.0524 3.76021 2.99969 3.63296 2.99969 3.50028C2.99969 3.3676 3.0524 3.24035 3.14622 3.14653C3.24004 3.05271 3.36729 3 3.49997 3C3.63265 3 3.7599 3.05271 3.85372 3.14653L7.99997 7.2934L12.1462 3.14653C12.24 3.05271 12.3673 3 12.5 3C12.6327 3 12.7599 3.05271 12.8537 3.14653C12.9475 3.24035 13.0003 3.3676 13.0003 3.50028C13.0003 3.63296 12.9475 3.76021 12.8537 3.85403L8.70685 8.00028L12.8537 12.1465Z" fill="#FCFCFC"/>
</g>
<defs>
<filter id="filter0_d_1064_14135" x="-2" y="-2" width="20" height="20" filterUnits="userSpaceOnUse" color-interpolation-filters="sRGB">
<feFlood flood-opacity="0" result="BackgroundImageFix"/>
<feColorMatrix in="SourceAlpha" type="matrix" values="0 0 0 0 0 0 0 0 0 0 0 0 0 0 0 0 0 0 127 0" result="hardAlpha"/>
<feOffset/>
<feGaussianBlur stdDeviation="1"/>
<feColorMatrix type="matrix" values="0 0 0 0 0 0 0 0 0 0 0 0 0 0 0 0 0 0 0.1 0"/>
<feBlend mode="normal" in2="BackgroundImageFix" result="effect1_dropShadow_1064_14135"/>
<feBlend mode="normal" in="SourceGraphic" in2="effect1_dropShadow_1064_14135" result="shape"/>
</filter>
</defs>
</svg>
