<svg width="24" height="25" viewBox="0 0 24 25" fill="none" xmlns="http://www.w3.org/2000/svg">
<g id="icon/duplicate">
<path id="Vector" fill-rule="evenodd" clip-rule="evenodd" d="M4.48218 9.09968C4.48218 8.31893 5.09521 7.6639 5.94168 7.66249C6.78824 7.66099 7.33509 7.6639 7.33509 7.6639C7.33509 7.6639 7.29871 6.82952 7.29871 6.16596C7.29871 5.50221 7.88249 4.83799 8.72953 4.83799C9.57656 4.83799 17.4297 4.81362 18.2261 4.87268C19.0225 4.93174 19.6564 5.43265 19.6564 6.23834C19.6564 7.04402 19.6513 15.0327 19.6513 15.7727C19.6513 16.5126 18.9876 17.1849 18.1646 17.1941C17.3417 17.2035 16.784 17.1848 16.784 17.1848C16.784 17.1848 16.8142 18.1195 16.8142 18.6936C16.8142 19.2676 16.1467 20.1013 15.3636 20.1013C14.5804 20.1013 6.63384 20.1521 5.87559 20.1521C5.11734 20.1521 4.41759 19.485 4.44993 18.6534C4.48228 17.8217 4.48218 9.88024 4.48218 9.09968ZM8.80031 6.42902L8.79393 15.6319C8.79393 15.7346 8.87774 15.8185 8.98134 15.8179L17.9396 15.7701C17.9894 15.7699 18.0371 15.7499 18.0722 15.7146C18.1073 15.6793 18.127 15.6315 18.1269 15.5816L18.1209 6.46137C18.1209 6.41144 18.101 6.36358 18.0656 6.3283C18.0303 6.29302 17.9824 6.27321 17.9325 6.27321L8.98874 6.24265C8.9641 6.2424 8.93966 6.24704 8.91682 6.25629C8.89398 6.26554 8.8732 6.27923 8.85568 6.29656C8.83816 6.31389 8.82424 6.33451 8.81474 6.35725C8.80524 6.37999 8.80033 6.40438 8.80031 6.42902ZM5.93137 9.48124L6.01724 18.5043C6.01786 18.554 6.03813 18.6015 6.07361 18.6363C6.10909 18.6711 6.15691 18.6904 6.20662 18.6901L15.0308 18.6231C15.08 18.6228 15.1286 18.6128 15.1739 18.5936C15.2192 18.5745 15.2602 18.5466 15.2947 18.5115C15.3291 18.4764 15.3563 18.4349 15.3746 18.3892C15.3929 18.3436 15.4021 18.2948 15.4014 18.2456L15.3886 17.2016C15.3886 17.2016 9.49387 17.2557 8.72728 17.2557C7.96068 17.2557 7.27996 16.5301 7.27996 15.7136C7.27996 14.897 7.33509 9.27293 7.33509 9.27293C7.33603 9.1698 7.25315 9.08637 7.14984 9.08777L6.30356 9.09996C6.20369 9.10132 6.10843 9.14222 6.03867 9.21369C5.9689 9.28516 5.93032 9.38137 5.93137 9.48124Z" fill="#0A0A0A" fill-opacity="0.7"/>
</g>
</svg>
