<svg width="18" height="18" viewBox="0 0 18 18" fill="none" xmlns="http://www.w3.org/2000/svg">
<path fill-rule="evenodd" clip-rule="evenodd" d="M8.3745 15.561C8.49732 15.644 8.63534 15.7019 8.78061 15.7314C8.92588 15.7608 9.07555 15.7613 9.22101 15.7328C9.36647 15.7042 9.50485 15.6472 9.6282 15.565C9.75156 15.4828 9.85745 15.377 9.93979 15.2538C10.0221 15.1305 10.0793 14.9922 10.108 14.8468C10.1367 14.7014 10.1364 14.5517 10.1071 14.4064C10.0778 14.2611 10.0201 14.123 9.93723 14.0001C9.85439 13.8772 9.74806 13.7718 9.62438 13.6901C9.37644 13.5377 9.07908 13.4873 8.79476 13.5495C8.51044 13.6117 8.26129 13.7816 8.09964 14.0237C7.938 14.2657 7.87644 14.561 7.92791 14.8474C7.97937 15.1339 8.13985 15.3892 8.37563 15.5599L8.3745 15.561ZM9 10.125C8.70163 10.125 8.41548 10.0065 8.20451 9.7955C7.99353 9.58452 7.875 9.29837 7.875 9C7.875 8.70163 7.99353 8.41548 8.20451 8.2045C8.41548 7.99353 8.70163 7.875 9 7.875C9.29837 7.875 9.58452 7.99353 9.79549 8.2045C10.0065 8.41548 10.125 8.70163 10.125 9C10.125 9.29837 10.0065 9.58452 9.79549 9.7955C9.58452 10.0065 9.29837 10.125 9 10.125ZM9 4.5C8.70163 4.5 8.41548 4.38147 8.20451 4.1705C7.99353 3.95952 7.875 3.67337 7.875 3.375C7.875 3.07663 7.99353 2.79048 8.20451 2.5795C8.41548 2.36853 8.70163 2.25 9 2.25C9.29837 2.25 9.58452 2.36853 9.79549 2.5795C10.0065 2.79048 10.125 3.07663 10.125 3.375C10.125 3.67337 10.0065 3.95952 9.79549 4.1705C9.58452 4.38147 9.29837 4.5 9 4.5Z" fill="#0A0A0A" fill-opacity="0.7"/>
</svg>
