<svg width="22" height="22" viewBox="0 0 22 22" fill="none" xmlns="http://www.w3.org/2000/svg">
<g id="Frame 14289">
<path id="Subtract" fill-rule="evenodd" clip-rule="evenodd" d="M15.9093 6.42244C19.6071 6.42239 20.6225 8.65522 20.7631 10.0531C20.8221 10.9434 20.7014 11.716 20.4429 12.3828C19.3855 12.8153 17.1912 13.2286 15.2012 12.0376C15.1092 11.9825 14.9899 12.0125 14.9349 12.1045C14.8798 12.1965 14.9097 12.3157 15.0018 12.3708C16.9159 13.5164 18.9919 13.276 20.2159 12.8783C18.5817 15.9439 13.7753 16.4452 11.0555 15.8971C10.6348 16.2142 9.62654 16.7475 8.95866 16.3436C8.29078 15.9398 8.68038 15.2952 8.95866 15.0234C4.62519 13.3149 3.1794 9.393 2.99819 7.64563C1.10327 8.37097 0.888407 7.61133 1.01784 7.14084C1.55177 6.90643 1.65769 6.76811 1.8336 6.53839C1.91995 6.42562 2.02317 6.29082 2.20217 6.11183C2.63707 5.67693 3.17293 5.93062 3.3865 6.11183C3.32437 5.58374 3.91718 5.30933 4.22135 5.23815C4.98243 5.51772 5.53511 5.12165 5.71632 4.88867C6.75698 5.77401 5.48981 6.759 4.72615 7.14084C5.34743 9.42406 6.83593 10.0337 7.50252 10.0531C8.49222 10.0531 9.45656 9.37553 10.5521 8.60583C11.9925 7.5938 13.6596 6.42246 15.9093 6.42244ZM18.3509 10.4419C18.0399 10.4419 17.7879 10.1899 17.7879 9.87891C17.7879 9.56795 18.0399 9.31586 18.3509 9.31586C18.6619 9.31586 18.9139 9.56795 18.9139 9.87891C18.9139 10.1899 18.6619 10.4419 18.3509 10.4419Z" fill="#FCFCFC"/>
</g>
</svg>
