<svg width="19" height="18" viewBox="0 0 19 18" fill="none" xmlns="http://www.w3.org/2000/svg">
<path d="M15.725 10.0729C15.536 10.014 15.3314 10.0322 15.1558 10.1235C14.9802 10.2148 14.8478 10.3719 14.7875 10.5604C14.4332 11.6438 13.7424 12.5858 12.8157 13.2495C11.889 13.9131 10.7747 14.2638 9.635 14.2504C8.22526 14.2664 6.8667 13.7228 5.85723 12.7386C4.84776 11.7544 4.26977 10.4101 4.25 9.00041C4.26977 7.59072 4.84776 6.2464 5.85723 5.26223C6.8667 4.27807 8.22526 3.73439 9.635 3.75041C10.9082 3.74733 12.1422 4.19051 13.1225 5.00291L11.495 4.73291C11.3975 4.71686 11.2977 4.72025 11.2015 4.74289C11.1053 4.76552 11.0145 4.80696 10.9343 4.86481C10.8542 4.92266 10.7862 4.99579 10.7344 5.07998C10.6826 5.16418 10.648 5.25778 10.6325 5.35541C10.6165 5.45295 10.6198 5.5527 10.6425 5.64892C10.6651 5.74515 10.7065 5.83595 10.7644 5.9161C10.8223 5.99626 10.8954 6.06419 10.9796 6.11598C11.0638 6.16778 11.1574 6.20242 11.255 6.21791L14.435 6.74291H14.5625C14.6495 6.74281 14.7358 6.72758 14.8175 6.69791C14.845 6.68748 14.8704 6.67224 14.8925 6.65291C14.9463 6.63291 14.9968 6.60512 15.0425 6.57041L15.11 6.48791C15.11 6.45041 15.1775 6.42041 15.2075 6.37541C15.2375 6.33041 15.2075 6.30041 15.245 6.27041C15.2657 6.22673 15.2833 6.18161 15.2975 6.13541L15.86 3.13541C15.8787 3.03692 15.8778 2.93571 15.8574 2.83755C15.837 2.73939 15.7975 2.64622 15.7411 2.56334C15.6847 2.48047 15.6125 2.40951 15.5287 2.35453C15.4448 2.29955 15.351 2.26162 15.2525 2.24291C15.154 2.2242 15.0528 2.22507 14.9546 2.24547C14.8565 2.26587 14.7633 2.30541 14.6804 2.36182C14.5131 2.47575 14.3978 2.6515 14.36 2.85041L14.1575 3.93791C12.902 2.84984 11.2964 2.25073 9.635 2.25041C7.82745 2.23441 6.08738 2.93613 4.7966 4.2016C3.50583 5.46706 2.76979 7.1929 2.75 9.00041C2.76979 10.8079 3.50583 12.5338 4.7966 13.7992C6.08738 15.0647 7.82745 15.7664 9.635 15.7504C11.0999 15.7729 12.5332 15.3245 13.7241 14.4712C14.915 13.6179 15.8004 12.4047 16.25 11.0104C16.2784 10.9144 16.2874 10.8136 16.2763 10.7141C16.2651 10.6146 16.2342 10.5183 16.1853 10.4309C16.1363 10.3435 16.0704 10.2668 15.9914 10.2053C15.9123 10.1439 15.8217 10.0988 15.725 10.0729Z" fill="#FCFCFC"/>
</svg>
