<svg width="22" height="22" viewBox="0 0 22 22" fill="none" xmlns="http://www.w3.org/2000/svg">
<g id="icon/shuffle">
<path id="Vector" d="M19.9955 15.1298C20.0566 15.1908 20.105 15.2631 20.138 15.3428C20.171 15.4225 20.188 15.5079 20.188 15.5941C20.188 15.6804 20.171 15.7658 20.138 15.8454C20.105 15.9251 20.0566 15.9975 19.9955 16.0584L18.0268 18.0272C17.9037 18.1503 17.7366 18.2195 17.5625 18.2195C17.3884 18.2195 17.2213 18.1503 17.0982 18.0272C16.9751 17.904 16.9059 17.737 16.9059 17.5629C16.9059 17.3887 16.9751 17.2217 17.0982 17.0986L17.9472 16.2504H16.9834C16.0434 16.2496 15.1171 16.0248 14.2813 15.5947C13.4455 15.1646 12.7242 14.5415 12.1771 13.7771L8.7548 8.9865C8.32931 8.39198 7.76829 7.90739 7.11822 7.57287C6.46815 7.23834 5.74773 7.06352 5.01664 7.06286H3.125C2.95095 7.06286 2.78403 6.99372 2.66096 6.87065C2.53789 6.74758 2.46875 6.58066 2.46875 6.40661C2.46875 6.23257 2.53789 6.06565 2.66096 5.94258C2.78403 5.81951 2.95095 5.75036 3.125 5.75036H5.01664C5.95663 5.75115 6.8829 5.9759 7.71872 6.406C8.55453 6.83611 9.27583 7.45918 9.82285 8.22361L13.2452 13.0142C13.6707 13.6088 14.2317 14.0933 14.8818 14.4279C15.5318 14.7624 16.2523 14.9372 16.9834 14.9379H17.9472L17.0982 14.0897C16.9751 13.9665 16.9059 13.7995 16.9059 13.6254C16.9059 13.4512 16.9751 13.2842 17.0982 13.1611C17.2213 13.0379 17.3884 12.9687 17.5625 12.9687C17.7366 12.9687 17.9037 13.0379 18.0268 13.1611L19.9955 15.1298ZM12.2305 9.27771C12.3006 9.3278 12.3799 9.36359 12.4639 9.38304C12.5478 9.40248 12.6348 9.40519 12.7198 9.39102C12.8048 9.37686 12.8862 9.34608 12.9593 9.30046C13.0324 9.25484 13.0958 9.19526 13.1459 9.12513L13.2444 8.98814C13.6698 8.3932 14.2308 7.90823 14.8811 7.57341C15.5313 7.23859 16.252 7.06357 16.9834 7.06286H17.9472L17.0982 7.91107C16.9751 8.03421 16.9059 8.20122 16.9059 8.37536C16.9059 8.54951 16.9751 8.71652 17.0982 8.83966C17.2213 8.9628 17.3884 9.03198 17.5625 9.03198C17.7366 9.03198 17.9037 8.9628 18.0268 8.83966L19.9955 6.87091C20.0566 6.80996 20.105 6.73759 20.138 6.65792C20.171 6.57825 20.188 6.49286 20.188 6.40661C20.188 6.32037 20.171 6.23498 20.138 6.15531C20.105 6.07564 20.0566 6.00327 19.9955 5.94232L18.0268 3.97357C17.9037 3.85043 17.7366 3.78125 17.5625 3.78125C17.3884 3.78125 17.2213 3.85043 17.0982 3.97357C16.9751 4.09671 16.9059 4.26372 16.9059 4.43786C16.9059 4.61201 16.9751 4.77902 17.0982 4.90216L17.9472 5.75036H16.9834C16.0434 5.75115 15.1171 5.9759 14.2813 6.406C13.4455 6.83611 12.7242 7.45918 12.1771 8.22361L12.0787 8.3606C12.0283 8.43073 11.9923 8.51012 11.9726 8.59422C11.953 8.67831 11.9501 8.76546 11.9642 8.85066C11.9783 8.93586 12.0091 9.01744 12.0548 9.09072C12.1005 9.164 12.1602 9.22755 12.2305 9.27771ZM9.76953 12.723C9.6994 12.6729 9.62009 12.6371 9.53613 12.6177C9.45217 12.5983 9.36521 12.5955 9.2802 12.6097C9.19519 12.6239 9.1138 12.6546 9.04068 12.7003C8.96757 12.7459 8.90415 12.8055 8.85406 12.8756L8.75562 13.0126C8.33023 13.6075 7.76916 14.0925 7.11892 14.4273C6.46869 14.7621 5.74802 14.9372 5.01664 14.9379H3.125C2.95095 14.9379 2.78403 15.007 2.66096 15.1301C2.53789 15.2531 2.46875 15.4201 2.46875 15.5941C2.46875 15.7682 2.53789 15.9351 2.66096 16.0582C2.78403 16.1812 2.95095 16.2504 3.125 16.2504H5.01664C5.95663 16.2496 6.8829 16.0248 7.71872 15.5947C8.55453 15.1646 9.27583 14.5415 9.82285 13.7771L9.92129 13.6401C9.97168 13.57 10.0077 13.4906 10.0274 13.4065C10.047 13.3224 10.0499 13.2353 10.0358 13.1501C10.0217 13.0649 9.99091 12.9833 9.94522 12.91C9.89953 12.8367 9.83983 12.7732 9.76953 12.723Z" fill="current"/>
</g>
</svg>
