<svg width="16" height="17" viewBox="0 0 16 17" fill="none" xmlns="http://www.w3.org/2000/svg">
<g id="icon/out">
<path id="Vector" d="M12.8538 12.6465C12.9002 12.693 12.9371 12.7481 12.9622 12.8088C12.9874 12.8695 13.0003 12.9346 13.0003 13.0003C13.0003 13.066 12.9874 13.131 12.9622 13.1917C12.9371 13.2524 12.9002 13.3076 12.8538 13.354C12.8073 13.4005 12.7522 13.4373 12.6915 13.4625C12.6308 13.4876 12.5657 13.5006 12.5 13.5006C12.4343 13.5006 12.3693 13.4876 12.3086 13.4625C12.2479 13.4373 12.1927 13.4005 12.1463 13.354L8.00003 9.20715L3.85378 13.354C3.75996 13.4478 3.63272 13.5006 3.50003 13.5006C3.36735 13.5006 3.2401 13.4478 3.14628 13.354C3.05246 13.2602 2.99976 13.133 2.99976 13.0003C2.99976 12.8676 3.05246 12.7403 3.14628 12.6465L7.29316 8.50028L3.14628 4.35403C3.05246 4.26021 2.99976 4.13296 2.99976 4.00028C2.99976 3.8676 3.05246 3.74035 3.14628 3.64653C3.2401 3.55271 3.36735 3.5 3.50003 3.5C3.63272 3.5 3.75996 3.55271 3.85378 3.64653L8.00003 7.7934L12.1463 3.64653C12.2401 3.55271 12.3674 3.5 12.5 3.5C12.6327 3.5 12.76 3.55271 12.8538 3.64653C12.9476 3.74035 13.0003 3.8676 13.0003 4.00028C13.0003 4.13296 12.9476 4.26021 12.8538 4.35403L8.70691 8.50028L12.8538 12.6465Z" fill="#0A0A0A" fill-opacity="0.7"/>
</g>
</svg>
