<svg width="32" height="32" viewBox="0 0 32 32" fill="none" xmlns="http://www.w3.org/2000/svg">
<path d="M7.62656 7.62674C7.81406 7.43948 8.06823 7.33429 8.33323 7.33429C8.59823 7.33429 8.85239 7.43948 9.03989 7.62674L15.9999 14.5867L22.9599 7.62674C23.0821 7.49511 23.2376 7.39888 23.4099 7.3482C23.5823 7.29751 23.7651 7.29425 23.9391 7.33874C24.1131 7.38324 24.2719 7.47386 24.3988 7.60104C24.5256 7.72822 24.6158 7.88726 24.6599 8.06141C24.7045 8.23525 24.7013 8.41787 24.6509 8.59009C24.6004 8.76231 24.5045 8.91776 24.3732 9.04008L17.4132 16.0001L24.3732 22.9601C24.5049 23.0823 24.6011 23.2378 24.6518 23.4101C24.7025 23.5824 24.7057 23.7653 24.6612 23.9393C24.6167 24.1133 24.5261 24.2721 24.3989 24.399C24.2718 24.5258 24.1127 24.616 23.9386 24.6601C23.7647 24.7046 23.5821 24.7015 23.4099 24.6511C23.2377 24.6006 23.0822 24.5047 22.9599 24.3734L15.9999 17.4134L9.03989 24.3734C8.85021 24.55 8.59948 24.6461 8.34039 24.6416C8.0813 24.6371 7.83403 24.5324 7.65056 24.3494C7.46757 24.1659 7.36283 23.9187 7.35835 23.6596C7.35388 23.4005 7.45001 23.1498 7.62656 22.9601L14.5866 16.0001L7.62656 9.04008C7.43929 8.85258 7.33411 8.59841 7.33411 8.33341C7.33411 8.06841 7.43929 7.81424 7.62656 7.62674Z" fill="#D9D9D9"/>
</svg>
