<svg width="100%" height="100%" viewBox="0 0 21 21" fill="none" xmlns="http://www.w3.org/2000/svg">
<path d="M18.3487 5.42576L11.13 1.47595C10.9371 1.36938 10.7204 1.31348 10.5 1.31348C10.2796 1.31348 10.0629 1.36938 9.87 1.47595L2.65125 5.4274C2.4451 5.54019 2.27301 5.70627 2.15295 5.90829C2.0329 6.1103 1.96928 6.34084 1.96875 6.57583V14.4213C1.96928 14.6563 2.0329 14.8868 2.15295 15.0889C2.27301 15.2909 2.4451 15.4569 2.65125 15.5697L9.87 19.5212C10.0629 19.6278 10.2796 19.6837 10.5 19.6837C10.7204 19.6837 10.9371 19.6278 11.13 19.5212L18.3487 15.5697C18.5549 15.4569 18.727 15.2909 18.847 15.0889C18.9671 14.8868 19.0307 14.6563 19.0312 14.4213V6.57665C19.0312 6.34124 18.9678 6.11019 18.8477 5.9077C18.7276 5.70522 18.5553 5.53875 18.3487 5.42576ZM10.5 2.62439L17.0904 6.23376L10.5 9.84314L3.90961 6.23376L10.5 2.62439ZM3.28125 7.3822L9.84375 10.9735V18.011L3.28125 14.4221V7.3822ZM11.1562 18.011V10.9768L17.7188 7.3822V14.4188L11.1562 18.011Z" fill="#FFD663"/>
<path d="M17.0904 6.23438L10.5 2.625L3.90961 6.23438L10.5 9.84375L17.0904 6.23438Z" fill="#FFF1CB"/>
<path d="M9.84375 10.9741L3.28125 7.38281V14.4227L9.84375 18.0116V10.9741Z" fill="#FFF1CB"/>
<path d="M11.1562 10.9761L17.7188 7.38477V14.4247L11.1562 18.0136V10.9761Z" fill="#FFF1CB"/>
</svg>
