<svg width="100%" height="100%" viewBox="0 0 32 32" fill="none" xmlns="http://www.w3.org/2000/svg">
<g id="icon/camera" clip-path="url(#clip0_235_4503)">
<path id="Vector" d="M16.6665 20.4672C18.7652 20.4672 20.4665 18.7659 20.4665 16.6672C20.4665 14.5685 18.7652 12.8672 16.6665 12.8672C14.5679 12.8672 12.8665 14.5685 12.8665 16.6672C12.8665 18.7659 14.5679 20.4672 16.6665 20.4672Z" fill="#0A0A0A" fill-opacity="0.35"/>
<path id="Vector_2" d="M26.8 6.53333H22.7847L21.214 4.82333C20.7453 4.304 20.0613 4 19.352 4H13.9813C13.272 4 12.588 4.304 12.1067 4.82333L10.5487 6.53333H6.53333C5.14 6.53333 4 7.67333 4 9.06667V24.2667C4 25.66 5.14 26.8 6.53333 26.8H26.8C28.1933 26.8 29.3333 25.66 29.3333 24.2667V9.06667C29.3333 7.67333 28.1933 6.53333 26.8 6.53333ZM16.6667 23C13.1707 23 10.3333 20.1627 10.3333 16.6667C10.3333 13.1707 13.1707 10.3333 16.6667 10.3333C20.1627 10.3333 23 13.1707 23 16.6667C23 20.1627 20.1627 23 16.6667 23Z" fill="#0A0A0A" fill-opacity="0.35"/>
</g>
<defs>
<clipPath id="clip0_235_4503">
<rect width="32" height="32" fill="white"/>
</clipPath>
</defs>
</svg>
