<svg width="100%" height="100%" viewBox="0 0 12 13" fill="none" xmlns="http://www.w3.org/2000/svg">
<g id="icon/clock">
<path id="Vector" d="M4.5517 2.23814C4.18532 1.78816 3.62649 1.5 3 1.5C1.89543 1.5 1 2.39543 1 3.5C1 4.12648 1.2882 4.68536 1.73814 5.05171C1.58374 5.5062 1.5 5.9933 1.5 6.5C1.5 7.60765 1.90018 8.6218 2.56385 9.4058L1.60984 10.3598C1.46339 10.5063 1.46339 10.7437 1.60984 10.8902C1.75628 11.0366 1.99372 11.0366 2.14017 10.8902L3.09419 9.93615C3.87819 10.5998 4.89236 11 6 11C7.10765 11 8.1218 10.5998 8.9058 9.93615L9.85985 10.8902C10.0063 11.0366 10.2437 11.0366 10.3902 10.8902C10.5366 10.7437 10.5366 10.5063 10.3902 10.3598L9.43615 9.4058C10.0998 8.6218 10.5 7.60765 10.5 6.5C10.5 5.9933 10.4163 5.5062 10.2619 5.05173C10.7119 4.68536 11 4.1265 11 3.5C11 2.39543 10.1046 1.5 9.00005 1.5C8.37355 1.5 7.8147 1.78817 7.44835 2.23815C6.99385 2.08375 6.5067 2 6 2C5.4933 2 5.0062 2.08374 4.5517 2.23814ZM3 2.25C3.31548 2.25 3.60392 2.36681 3.82414 2.56007C3.08318 2.97014 2.47014 3.58317 2.06007 4.32414C1.86678 4.1039 1.75 3.8155 1.75 3.5C1.75 2.80964 2.30964 2.25 3 2.25ZM8.1759 2.56008C8.3961 2.36681 8.68455 2.25 9.00005 2.25C9.6904 2.25 10.25 2.80964 10.25 3.5C10.25 3.8155 10.1333 4.10394 9.93995 4.32417C9.5299 3.5832 8.91685 2.97017 8.1759 2.56008ZM5.625 4C5.8321 4 6 4.1679 6 4.375V6.5H7.375C7.5821 6.5 7.75 6.6679 7.75 6.875C7.75 7.0821 7.5821 7.25 7.375 7.25H5.625C5.4179 7.25 5.25 7.0821 5.25 6.875V4.375C5.25 4.1679 5.4179 4 5.625 4Z" fill="#0A0A0A" fill-opacity="0.7"/>
</g>
</svg>
