<svg width="18" height="18" viewBox="0 0 18 18" fill="none" xmlns="http://www.w3.org/2000/svg">
<g id="icon/comment">
<path id="Vector" fill-rule="evenodd" clip-rule="evenodd" d="M1.50001 9C1.50001 4.85775 4.85776 1.5 9.00001 1.5C13.1423 1.5 16.5 4.85775 16.5 9C16.5 13.1423 13.1423 16.5 9.00001 16.5C7.89488 16.5015 6.80317 16.2579 5.80351 15.7867L2.40076 16.4843C2.27926 16.5091 2.1535 16.5034 2.03474 16.4677C1.91598 16.432 1.80792 16.3675 1.72023 16.2798C1.63255 16.1921 1.56797 16.084 1.53229 15.9653C1.4966 15.8465 1.49092 15.7207 1.51576 15.5992L2.21326 12.1965C1.7421 11.1968 1.4985 10.1051 1.50001 9ZM5.62501 7.875C5.32664 7.875 5.04049 7.99353 4.82951 8.2045C4.61853 8.41548 4.50001 8.70163 4.50001 9V9.0075C4.50001 9.30587 4.61853 9.59202 4.82951 9.803C5.04049 10.014 5.32664 10.1325 5.62501 10.1325H5.63251C5.93088 10.1325 6.21702 10.014 6.428 9.803C6.63898 9.59202 6.75751 9.30587 6.75751 9.0075V9C6.75751 8.70163 6.63898 8.41548 6.428 8.2045C6.21702 7.99353 5.93088 7.875 5.63251 7.875H5.62501ZM9.00001 7.875C8.70164 7.875 8.41549 7.99353 8.20451 8.2045C7.99353 8.41548 7.87501 8.70163 7.87501 9V9.0075C7.87501 9.30587 7.99353 9.59202 8.20451 9.803C8.41549 10.014 8.70164 10.1325 9.00001 10.1325H9.00751C9.30588 10.1325 9.59202 10.014 9.803 9.803C10.014 9.59202 10.1325 9.30587 10.1325 9.0075V9C10.1325 8.70163 10.014 8.41548 9.803 8.2045C9.59202 7.99353 9.30588 7.875 9.00751 7.875H9.00001ZM11.25 9C11.25 8.70163 11.3685 8.41548 11.5795 8.2045C11.7905 7.99353 12.0766 7.875 12.375 7.875H12.3825C12.6809 7.875 12.967 7.99353 13.178 8.2045C13.389 8.41548 13.5075 8.70163 13.5075 9V9.0075C13.5075 9.30587 13.389 9.59202 13.178 9.803C12.967 10.014 12.6809 10.1325 12.3825 10.1325H12.375C12.0766 10.1325 11.7905 10.014 11.5795 9.803C11.3685 9.59202 11.25 9.30587 11.25 9.0075V9Z" fill="#0A0A0A" fill-opacity="0.7"/>
</g>
</svg>
