<svg width="32" height="32" viewBox="0 0 32 32" fill="none" xmlns="http://www.w3.org/2000/svg">
<g id="icon/delete">
<path id="Vector" d="M7.62666 7.62577C7.81416 7.4385 8.06832 7.33331 8.33333 7.33331C8.59833 7.33331 8.85249 7.4385 9.03999 7.62577L16 14.5858L22.96 7.62577C23.0822 7.49413 23.2377 7.39791 23.41 7.34722C23.5824 7.29654 23.7652 7.29327 23.9392 7.33777C24.1132 7.38226 24.272 7.47288 24.3989 7.60006C24.5257 7.72724 24.6159 7.88629 24.66 8.06043C24.7045 8.23427 24.7014 8.4169 24.651 8.58912C24.6005 8.76133 24.5046 8.91678 24.3733 9.0391L17.4133 15.9991L24.3733 22.9591C24.505 23.0813 24.6012 23.2368 24.6519 23.4091C24.7026 23.5815 24.7058 23.7643 24.6613 23.9383C24.6168 24.1123 24.5262 24.2711 24.399 24.398C24.2719 24.5249 24.1128 24.6151 23.9387 24.6591C23.7648 24.7037 23.5822 24.7005 23.41 24.6501C23.2378 24.5997 23.0823 24.5037 22.96 24.3724L16 17.4124L9.03999 24.3724C8.85031 24.549 8.59957 24.6451 8.34049 24.6406C8.0814 24.6362 7.83413 24.5314 7.65066 24.3484C7.46767 24.165 7.36293 23.9177 7.35845 23.6586C7.35398 23.3995 7.45011 23.1488 7.62666 22.9591L14.5867 15.9991L7.62666 9.0391C7.43939 8.8516 7.33421 8.59744 7.33421 8.33243C7.33421 8.06743 7.43939 7.81327 7.62666 7.62577Z" fill="#D9D9D9"/>
</g>
</svg>
