<svg width="24" height="24" viewBox="0 0 24 24" fill="none" xmlns="http://www.w3.org/2000/svg">
<g id="icon/duplicate">
<path id="Vector" fill-rule="evenodd" clip-rule="evenodd" d="M4.4823 8.5987C4.4823 7.81795 5.09533 7.16292 5.9418 7.16151C6.78837 7.16001 7.33521 7.16292 7.33521 7.16292C7.33521 7.16292 7.29883 6.32855 7.29883 5.66498C7.29883 5.00123 7.88262 4.33701 8.72965 4.33701C9.57668 4.33701 17.4298 4.31264 18.2262 4.3717C19.0226 4.43077 19.6565 4.93167 19.6565 5.73736C19.6565 6.54305 19.6514 14.5318 19.6514 15.2717C19.6514 16.0116 18.9877 16.6839 18.1647 16.6932C17.3418 16.7025 16.7841 16.6838 16.7841 16.6838C16.7841 16.6838 16.8144 17.6185 16.8144 18.1926C16.8144 18.7666 16.1469 19.6004 15.3637 19.6004C14.5805 19.6004 6.63396 19.6512 5.87571 19.6512C5.11746 19.6512 4.41771 18.984 4.45005 18.1524C4.4824 17.3207 4.4823 9.37926 4.4823 8.5987ZM8.80043 5.92805L8.79405 15.1309C8.79405 15.2337 8.87787 15.3175 8.98146 15.3169L17.9397 15.2691C17.9895 15.2689 18.0372 15.2489 18.0723 15.2136C18.1075 15.1783 18.1271 15.1305 18.1271 15.0807L18.1211 5.96039C18.121 5.91046 18.1011 5.8626 18.0658 5.82733C18.0304 5.79205 17.9825 5.77223 17.9326 5.77223L8.98887 5.74167C8.96422 5.74142 8.93978 5.74606 8.91694 5.75531C8.8941 5.76457 8.87332 5.77825 8.8558 5.79558C8.83828 5.81291 8.82437 5.83354 8.81486 5.85627C8.80536 5.87901 8.80045 5.9034 8.80043 5.92805ZM5.93149 8.98026L6.01737 18.0033C6.01798 18.053 6.03825 18.1005 6.07373 18.1353C6.10921 18.1701 6.15703 18.1895 6.20674 18.1891L15.031 18.1221C15.0801 18.1218 15.1287 18.1118 15.174 18.0927C15.2193 18.0735 15.2604 18.0456 15.2948 18.0105C15.3293 17.9754 15.3564 17.9339 15.3747 17.8883C15.3931 17.8426 15.4022 17.7938 15.4016 17.7447L15.3887 16.7006C15.3887 16.7006 9.49399 16.7548 8.7274 16.7548C7.9608 16.7548 7.28009 16.0291 7.28009 15.2126C7.28009 14.396 7.33521 8.77195 7.33521 8.77195C7.33615 8.66883 7.25327 8.58539 7.14996 8.5868L6.30368 8.59898C6.20381 8.60034 6.10856 8.64124 6.03879 8.71271C5.96903 8.78418 5.93044 8.88039 5.93149 8.98026Z" fill="current" fill-opacity="current"/>
</g>
</svg>
