<svg width="24" height="24" viewBox="0 0 24 24" fill="none" xmlns="http://www.w3.org/2000/svg">
<g id="Frame">
<path id="Vector" d="M12.1225 1.47021C12.9152 1.47935 13.7048 1.57094 14.4785 1.7435C14.8162 1.81883 15.0688 2.1004 15.1072 2.44433L15.291 4.09333C15.3743 4.85046 16.0135 5.42392 16.7756 5.42471C16.9805 5.42504 17.1831 5.38238 17.3724 5.29862L18.8851 4.63413C19.1997 4.49593 19.5673 4.57128 19.8021 4.82212C20.8953 5.98962 21.7094 7.38985 22.1833 8.91743C22.2855 9.24683 22.1679 9.60479 21.8903 9.80942L20.5495 10.7977C20.1669 11.0787 19.9411 11.525 19.9411 11.9997C19.9411 12.4742 20.1669 12.9205 20.5503 13.2021L21.8923 14.1908C22.1699 14.3953 22.2876 14.7533 22.1855 15.0828C21.7118 16.6102 20.8981 18.0103 19.8056 19.178C19.571 19.4287 19.2037 19.5043 18.8891 19.3664L17.3702 18.701C16.9356 18.5109 16.4367 18.5387 16.026 18.7761C15.6153 19.0134 15.3421 19.4319 15.2899 19.9033L15.1073 21.5521C15.0696 21.8921 14.8225 22.1718 14.4896 22.251C12.9253 22.6232 11.2955 22.6232 9.73114 22.251C9.39837 22.1718 9.15119 21.8921 9.11353 21.5521L8.93121 19.9058C8.87765 19.4352 8.60394 19.018 8.19362 18.7815C7.78332 18.545 7.28509 18.5172 6.85201 18.7063L5.33283 19.3718C5.01817 19.5097 4.65076 19.4341 4.41613 19.1832C3.32299 18.0142 2.50927 16.6123 2.03624 15.0834C1.93435 14.7541 2.05207 14.3963 2.32962 14.1918L3.67243 13.2026C4.05491 12.9215 4.28079 12.4753 4.28079 12.0007C4.28079 11.5261 4.05491 11.0798 3.67193 10.7985L2.32996 9.81088C2.05201 9.60633 1.93418 9.24812 2.03642 8.91851C2.51028 7.39093 3.32441 5.9907 4.41759 4.8232C4.65245 4.57236 5.02003 4.49701 5.33464 4.63521L6.84706 5.29959C7.28224 5.49057 7.78255 5.46173 8.19508 5.22071C8.60583 4.98247 8.87929 4.56357 8.93208 4.09206L9.11576 2.44433C9.15412 2.10023 9.40695 1.81856 9.74493 1.74339C10.5196 1.57111 11.3101 1.47956 12.1225 1.47021ZM12.1227 3.0901C11.6322 3.09587 11.1433 3.1382 10.6597 3.21659L10.5421 4.27192C10.4321 5.25418 9.8629 6.12611 9.01011 6.62076C8.1521 7.12203 7.10599 7.18236 6.19577 6.78291L5.22561 6.35673C4.60792 7.10643 4.11628 7.95166 3.77 8.85922L4.63164 9.49329C5.42956 10.0795 5.90081 11.0106 5.90081 12.0007C5.90081 12.9908 5.42956 13.9218 4.63248 14.5074L3.76949 15.1432C4.11547 16.0523 4.60718 16.8992 5.2253 17.6503L6.20285 17.2221C7.10801 16.8269 8.14699 16.8847 9.00267 17.3779C9.85834 17.8712 10.4291 18.7412 10.5411 19.725L10.6588 20.7876C11.6196 20.951 12.6012 20.951 13.562 20.7876L13.6797 19.7251C13.7886 18.7417 14.3587 17.8686 15.2154 17.3735C16.0721 16.8783 17.1132 16.8202 18.02 17.2171L18.9967 17.645C19.6143 16.8951 20.1058 16.0497 20.4521 15.1419L19.5902 14.507C18.7923 13.9208 18.3211 12.9897 18.3211 11.9997C18.3211 11.0095 18.7923 10.0784 19.5892 9.49295L20.4499 8.85858C20.1036 7.95086 19.6119 7.10547 18.9942 6.35565L18.0259 6.78097C17.6314 6.95554 17.2046 7.04538 16.7735 7.04471C15.1862 7.04305 13.8541 5.84804 13.6808 4.27155L13.5632 3.21625C13.0821 3.13795 12.5981 3.09574 12.1227 3.0901ZM12.109 7.95015C14.3458 7.95015 16.159 9.76339 16.159 12.0002C16.159 14.2369 14.3458 16.0502 12.109 16.0502C9.87219 16.0502 8.05892 14.2369 8.05892 12.0002C8.05892 9.76339 9.87219 7.95015 12.109 7.95015ZM12.109 9.57015C10.7669 9.57015 9.67894 10.6581 9.67894 12.0002C9.67894 13.3422 10.7669 14.4302 12.109 14.4302C13.451 14.4302 14.539 13.3422 14.539 12.0002C14.539 10.6581 13.451 9.57015 12.109 9.57015Z" fill="#212121"/>
</g>
</svg>
