<svg width="100%" height="100%" viewBox="0 0 12 13" fill="none" xmlns="http://www.w3.org/2000/svg">
<g id="icon/location">
<path id="Vector" d="M9.0784 8.93997L8.4849 9.52692C8.04745 9.95622 7.4799 10.5082 6.78195 11.183C6.34585 11.6047 5.65395 11.6046 5.2179 11.1829L3.47233 9.48492C3.25295 9.26952 3.06931 9.08787 2.92139 8.93997C1.22119 7.23977 1.22119 4.48317 2.92139 2.78297C4.6216 1.08276 7.3782 1.08276 9.0784 2.78297C10.7786 4.48317 10.7786 7.23977 9.0784 8.93997ZM7.25 5.99882C7.25 5.3084 6.6903 4.74871 5.9999 4.74871C5.3095 4.74871 4.74979 5.3084 4.74979 5.99882C4.74979 6.68922 5.3095 7.24892 5.9999 7.24892C6.6903 7.24892 7.25 6.68922 7.25 5.99882Z" fill="#0A0A0A" fill-opacity="0.7"/>
</g>
</svg>
