<svg width="24" height="24" viewBox="0 0 24 24" fill="none" xmlns="http://www.w3.org/2000/svg">
<g id="icon/notice">
<path visibility="visible" id="Vector" d="M20.6062 16.2406C20.0531 15.2844 19.3874 13.4656 19.3874 10.25V9.58438C19.3874 5.43125 16.0593 2.02813 11.9624 2H11.9062C10.9225 2.00123 9.94869 2.1962 9.04035 2.57378C8.13202 2.95135 7.30695 3.50414 6.61225 4.20058C5.91755 4.89702 5.36683 5.72347 4.99153 6.63275C4.61623 7.54202 4.42369 8.51632 4.42493 9.5V10.25C4.42493 13.4656 3.7593 15.2844 3.20618 16.2406C3.0724 16.4685 3.0012 16.7277 2.99978 16.9919C2.99835 17.2561 3.06675 17.5161 3.19806 17.7454C3.32936 17.9747 3.51891 18.1652 3.74752 18.2977C3.97613 18.4303 4.23569 18.5 4.49993 18.5H8.15618C8.15618 19.4946 8.55126 20.4484 9.25453 21.1516C9.95779 21.8549 10.9116 22.25 11.9062 22.25C12.9007 22.25 13.8546 21.8549 14.5578 21.1516C15.2611 20.4484 15.6562 19.4946 15.6562 18.5H19.3124C19.5766 18.5017 19.8365 18.4331 20.0655 18.3013C20.2945 18.1696 20.4843 17.9793 20.6156 17.75C20.7457 17.5194 20.8133 17.2588 20.8116 16.9941C20.81 16.7293 20.7392 16.4696 20.6062 16.2406ZM11.9062 20.75C11.3102 20.7475 10.7393 20.5097 10.3179 20.0883C9.89649 19.6668 9.65864 19.096 9.65618 18.5H14.1562C14.1537 19.096 13.9159 19.6668 13.4944 20.0883C13.073 20.5097 12.5022 20.7475 11.9062 20.75ZM4.49993 17C5.1468 15.875 5.92493 13.8031 5.92493 10.25V9.5C5.92246 8.71295 6.07535 7.93316 6.37483 7.20532C6.67431 6.47747 7.11449 5.81589 7.67015 5.25849C8.22581 4.70109 8.88601 4.25884 9.61291 3.95708C10.3398 3.65533 11.1191 3.5 11.9062 3.5H11.9531C15.2249 3.51875 17.8874 6.25625 17.8874 9.58438V10.25C17.8874 13.8031 18.6656 15.875 19.3124 17H4.49993Z" fill="black"/>
</g>
</svg>
