<svg width="24" height="24" viewBox="0 0 24 24" fill="none" xmlns="http://www.w3.org/2000/svg">
<g id="icon/participant">
<rect id="Rectangle 2860409" x="3.75" y="3.75" width="16.5" height="16.5" rx="2.25" stroke="#0A0A0A" stroke-width="1.5"/>
<path id="Subtract" fill-rule="evenodd" clip-rule="evenodd" d="M14.5 9.49998C14.5 8.11929 13.3807 7 12 7C10.6193 7 9.5 8.11929 9.5 9.49998C9.5 10.8807 10.6193 12 12 12C13.3807 12 14.5 10.8807 14.5 9.49998ZM16 14.25C16 13.5597 15.4404 13 14.75 13H9.25C8.55964 13 8 13.5597 8 14.25V14.7473C8 16.5949 9.47204 17.5037 12 17.5037C14.5279 17.5037 16 16.5958 16 14.7493V14.25ZM11 9.49998C11 8.94772 11.4477 8.5 12 8.5C12.5523 8.5 13 8.94772 13 9.49998C13 10.0523 12.5523 10.5 12 10.5C11.4477 10.5 11 10.0523 11 9.49998ZM14.5 14.7493V14.5H9.5V14.7473C9.5 15.5748 10.1946 16.0037 12 16.0037C13.8054 16.0037 14.5 15.5753 14.5 14.7493Z" fill="#0A0A0A"/>
</g>
</svg>
