<svg width="12" height="12" viewBox="0 0 12 12" fill="none" xmlns="http://www.w3.org/2000/svg">
<g id="icon/people">
<path id="Vector" d="M4 6C5.10455 6 6 5.10455 6 4C6 2.89543 5.10455 2 4 2C2.89543 2 2 2.89543 2 4C2 5.10455 2.89543 6 4 6ZM8.5 6C9.32845 6 10 5.32845 10 4.5C10 3.67158 9.32845 3 8.5 3C7.67155 3 7 3.67158 7 4.5C7 5.32845 7.67155 6 8.5 6ZM2.125 7C1.50368 7 1 7.5037 1 8.125V8.25C1 8.25 1 10.5 4 10.5C7 10.5 7 8.25 7 8.25V8.125C7 7.5037 6.4963 7 5.875 7H2.125ZM8.5001 9.75C7.9145 9.75 7.46605 9.65945 7.12265 9.5208C7.29365 9.23335 7.38595 8.9571 7.4362 8.7418C7.4664 8.61235 7.48225 8.50135 7.49065 8.41765C7.49485 8.3756 7.4972 8.34 7.4985 8.31185C7.49915 8.29775 7.49955 8.28545 7.4998 8.27515L7.50005 8.2611L7.5001 8.25515V8.2525V8.2512C7.5001 8.2496 7.5001 8.25 7.5001 8.25V8.125C7.5001 7.68895 7.32835 7.29305 7.04885 7.00115C7.0658 7.0004 7.0829 7 7.1001 7H9.9001C10.5076 7 11.0001 7.4925 11.0001 8.1C11.0001 8.1 11.0001 9.75 8.5001 9.75Z" fill="#0A0A0A" fill-opacity="0.7"/>
</g>
</svg>
