<svg width="18" height="18" viewBox="0 0 18 18" fill="none" xmlns="http://www.w3.org/2000/svg">
<g id="icon/plus">
<path id="Vector" d="M15.6093 9.00005C15.6093 9.11193 15.5649 9.21924 15.4858 9.29836C15.4067 9.37748 15.2994 9.42192 15.1875 9.42192H9.4218V15.1876C9.4218 15.2995 9.37735 15.4068 9.29824 15.4859C9.21912 15.565 9.11181 15.6095 8.99992 15.6095C8.88803 15.6095 8.78073 15.565 8.70161 15.4859C8.62249 15.4068 8.57805 15.2995 8.57805 15.1876V9.42192H2.81238C2.70049 9.42192 2.59319 9.37748 2.51407 9.29836C2.43495 9.21924 2.3905 9.11193 2.3905 9.00005C2.3905 8.88816 2.43495 8.78085 2.51407 8.70173C2.59319 8.62262 2.70049 8.57817 2.81238 8.57817H8.57805V2.8125C8.57805 2.70061 8.62249 2.59331 8.70161 2.51419C8.78073 2.43507 8.88803 2.39063 8.99992 2.39062C9.11181 2.39063 9.21912 2.43507 9.29824 2.51419C9.37735 2.59331 9.4218 2.70061 9.4218 2.8125V8.57817H15.1875C15.2994 8.57817 15.4067 8.62262 15.4858 8.70173C15.5649 8.78085 15.6093 8.88816 15.6093 9.00005Z" fill="#8FC9FF"/>
</g>
</svg>
