<svg width="100%" height="100%" viewBox="0 0 24 24" fill="none" xmlns="http://www.w3.org/2000/svg">
<g id="icon/points" clip-path="url(#clip0_2087_15313)">
<circle id="Ellipse 57" cx="12" cy="12" r="11.25" fill="#BBDDFF" stroke="#61B3FF" stroke-width="1.5"/>
<path id="z" d="M16 8.65527C16 8.91622 15.9075 9.16873 15.739 9.36796L10.6035 15.4389C10.545 15.508 10.5941 15.6139 10.6846 15.6139H15.1386C15.6143 15.6139 16 15.9995 16 16.4752C16 16.951 15.6143 17.3366 15.1386 17.3366H9.33333C8.59695 17.3366 8 16.7397 8 16.0033V15.8879C8 15.5448 8.12179 15.2128 8.34367 14.9511L13.4732 8.90032C13.5326 8.83026 13.4828 8.72277 13.391 8.72277H8.86139C8.38566 8.72277 8 8.33712 8 7.86139C8 7.38566 8.38566 7 8.86139 7H14.3447C15.2589 7 16 7.74109 16 8.65527Z" fill="#61B3FF"/>
</g>
<defs>
<clipPath id="clip0_2087_15313">
<rect width="24" height="24" fill="white"/>
</clipPath>
</defs>
</svg>
