<svg width="25" height="24" viewBox="0 0 25 24" fill="none" xmlns="http://www.w3.org/2000/svg">
<g id="icon/compliment">
<path d="M12.2519 2C13.7717 2 15.0037 3.23205 15.0037 4.75187V19.2504C15.0037 20.7702 13.7717 22.0023 12.2519 22.0023C10.7321 22.0023 9.5 20.7702 9.5 19.2504V4.75187C9.5 3.23205 10.7321 2 12.2519 2ZM19.2519 7C20.7717 7 22.0037 8.23205 22.0037 9.75187V19.2504C22.0037 20.7702 20.7717 22.0023 19.2519 22.0023C17.7321 22.0023 16.5 20.7702 16.5 19.2504V9.75187C16.5 8.23205 17.7321 7 19.2519 7ZM5.25187 12C6.77169 12 8.00374 13.2321 8.00374 14.7519V19.2504C8.00374 20.7702 6.77169 22.0023 5.25187 22.0023C3.73205 22.0023 2.5 20.7702 2.5 19.2504V14.7519C2.5 13.2321 3.73205 12 5.25187 12ZM12.2519 3.5C11.5605 3.5 11 4.06048 11 4.75187V19.2504C11 19.9418 11.5605 20.5023 12.2519 20.5023C12.9433 20.5023 13.5037 19.9418 13.5037 19.2504V4.75187C13.5037 4.06048 12.9433 3.5 12.2519 3.5ZM19.2519 8.5C18.5605 8.5 18 9.06048 18 9.75187V19.2504C18 19.9418 18.5605 20.5023 19.2519 20.5023C19.9433 20.5023 20.5037 19.9418 20.5037 19.2504V9.75187C20.5037 9.06048 19.9433 8.5 19.2519 8.5ZM5.25187 13.5C4.56048 13.5 4 14.0605 4 14.7519V19.2504C4 19.9418 4.56048 20.5023 5.25187 20.5023C5.94326 20.5023 6.50374 19.9418 6.50374 19.2504V14.7519C6.50374 14.0605 5.94326 13.5 5.25187 13.5Z" fill="current" fill-opacity="current"/>
</g>
</svg>
