<svg width="18" height="18" viewBox="0 0 18 18" fill="none" xmlns="http://www.w3.org/2000/svg">
<g clip-path="url(#clip0_3687_3474)">
<circle cx="9" cy="9" r="8.4375" fill="#FFE18E" stroke="#FDB639" stroke-width="1.125"/>
<path d="M7.06201 12.75C6.8549 12.75 6.68701 12.5821 6.68701 12.375V5.70117C6.68701 5.49407 6.8549 5.32617 7.06201 5.32617H9.47607C11.1782 5.32617 12.0857 6.27979 12.0908 7.69482C12.0857 8.70483 11.6243 9.45337 10.7527 9.80713L12.055 12.1955C12.1913 12.4454 12.0104 12.75 11.7258 12.75H11.0951C10.9569 12.75 10.8299 12.674 10.7646 12.5521L9.52059 10.2306C9.4553 10.1088 9.32828 10.0327 9.19005 10.0327H8.02002V12.375C8.02002 12.5821 7.85213 12.75 7.64502 12.75H7.06201ZM8.02002 8.91504H9.271C10.2759 8.92017 10.7271 8.4895 10.7271 7.69482C10.7271 6.90527 10.2759 6.44385 9.271 6.44385H8.02002V8.91504Z" fill="#FDB639"/>
</g>
<defs>
<clipPath id="clip0_3687_3474">
<rect width="18" height="18" fill="white"/>
</clipPath>
</defs>
</svg>
