<svg width="33" height="19" viewBox="0 0 33 19" fill="none" xmlns="http://www.w3.org/2000/svg">
<path id="Subtract" fill-rule="evenodd" clip-rule="evenodd" d="M7.96668 2.50979C1.91569 2.50973 0.254163 6.16344 0.0241001 8.45085C-0.0724913 9.90768 0.125094 11.1718 0.548037 12.2629C2.27833 12.9706 5.86894 13.6469 9.12533 11.698C9.27589 11.6079 9.47099 11.6569 9.5611 11.8075C9.65121 11.958 9.6022 12.1531 9.45164 12.2432C6.31946 14.1178 2.92232 13.7245 0.919463 13.0737C3.5934 18.0904 11.4586 18.9106 15.9093 18.0138C16.5976 18.5327 18.2476 19.4053 19.3405 18.7445C20.4334 18.0837 19.7958 17.0289 19.3405 16.5841C26.4316 13.7883 28.7974 7.37072 29.0939 4.51139C32.1947 5.6983 32.5463 4.45525 32.3345 3.68536C31.4608 3.30179 31.2875 3.07544 30.9996 2.69954C30.8583 2.515 30.6894 2.29443 30.3965 2.00153C29.6849 1.28988 28.808 1.70501 28.4585 2.00153C28.5602 1.13738 27.5902 0.688357 27.0924 0.571866C25.847 1.02936 24.9426 0.381244 24.6461 0C22.9432 1.44873 25.0168 3.06054 26.2664 3.68536C25.2497 7.42155 22.814 8.4191 21.7232 8.45085C20.1037 8.45085 18.5257 7.34213 16.7331 6.08262C14.3761 4.42658 11.648 2.50984 7.96668 2.50979ZM3.97132 9.08666C4.48016 9.08666 4.89266 8.67416 4.89266 8.16532C4.89266 7.65648 4.48016 7.24398 3.97132 7.24398C3.46248 7.24398 3.04998 7.65648 3.04998 8.16532C3.04998 8.67416 3.46248 9.08666 3.97132 9.08666Z" fill="current"/>
</svg>
