<svg width="125" height="64" viewBox="0 0 125 64" fill="none" xmlns="http://www.w3.org/2000/svg">
<g id="Group 33661">
<g id="Group 33659">
<path id="Vector 2234" d="M7.54092 33.6277C12.5487 50.8176 33.0372 53.0004 41.77 52.2417C43.9568 60.9497 52.2348 58.5475 55.142 57.3047C52.4282 55.7229 53.5592 53.4183 52.3193 51.4612C51.3275 49.8955 49.0819 49.4887 47.6402 49.6756C52.4876 47.809 51.955 45.3778 51.1296 42.9196C50.4847 40.999 51.2745 39.5532 51.6932 39.1714C42.9272 40.1533 42.207 43.2569 41.8556 46.5597C41.8414 46.6932 41.7307 46.7716 41.6056 46.7229C40.6618 46.3558 37.1835 44.6099 38.7362 40.8045C38.7464 40.7795 38.7597 40.7537 38.7738 40.7308C47.9203 25.9128 46.3749 18.1455 40.9571 10.7841C34.9747 2.65554 24.6618 2.93983 20.0532 3.99413C15.4446 5.04843 1.42575 12.6363 7.54092 33.6277Z" fill="#FFE18E" stroke="black" stroke-width="1.01226" stroke-linejoin="round"/>
<path id="Vector 2237" d="M4.32598 42.4099C-2.48651 39.6133 5.7906 33.9907 10.5177 31.7385L14.9001 34.2205L19.5527 36.3349C17.4757 39.2581 11.1385 45.2065 4.32598 42.4099Z" fill="#FFE18E"/>
<path id="Vector 2236" d="M47.978 33.7345C46.6122 36.3711 43.0107 36.7779 41.3807 36.6517L44.6974 29.1775C46.36 29.5979 49.3438 31.0979 47.978 33.7345Z" fill="#FFE18E" stroke="black" stroke-width="1.01226"/>
<path id="Vector 2235" d="M9.99176 32.1573C5.26462 34.4095 -2.48653 39.613 4.32596 42.4096C11.1385 45.2062 16.9954 40.059 19.0724 37.1358" stroke="black" stroke-width="1.01226" stroke-linecap="round"/>
<circle id="Ellipse 728" cx="35.361" cy="16.2906" r="1.77146" transform="rotate(2.63842 35.361 16.2906)" fill="black"/>
<circle id="Ellipse 729" cx="21.7082" cy="18.4478" r="1.77146" transform="rotate(2.63842 21.7082 18.4478)" fill="black"/>
<path id="Vector 2238" d="M22.5866 24.1248C24.1096 24.9761 27.8363 25.9248 30.5593 22.9089C32.0009 23.6931 35.3019 24.4448 36.9724 21.1777" stroke="black" stroke-width="1.01226" stroke-linecap="round" stroke-linejoin="round"/>
<path id="Vector 2242" d="M22.3886 37.4149C21.5209 46.968 31.6661 49.2243 38.1699 49.2982C38.6286 49.3034 38.8341 48.7297 38.5138 48.4013C33.0442 42.7925 38.1019 38.794 38.4215 33.0875C38.7788 26.7073 23.5457 24.6757 22.3886 37.4149Z" fill="white"/>
<path id="Vector 2243" d="M27.7961 30.8673C16.4248 32.8474 9.40148 31.262 6.90356 30.2043C6.81876 30.1684 6.76067 30.0941 6.74138 30.004L6.12408 27.1233C4.75608 27.7473 2.16413 29.3553 3.17211 31.6593C4.38073 34.4219 12.361 36.703 27.7961 34.6113C43.2041 32.5233 49.7849 25.8129 49.6121 23.4513C49.4393 21.0897 46.5641 20.8353 45.4361 21.0033L45.3667 23.7813C45.365 23.8473 45.3428 23.9088 45.2989 23.9581C43.9564 25.4636 39.181 28.8849 27.7961 30.8673Z" fill="#FEC33E" stroke="#0A0A0A" stroke-width="1.008"/>
<path id="Vector 2244" d="M4.10806 32.5949L6.77213 30.291L10.3001 31.299L7.99613 34.395C6.67133 34.107 4.85209 33.0749 4.10806 32.5949Z" fill="#F7782B" stroke="black" stroke-width="0.864"/>
<path id="Vector 2245" d="M12.087 35.2226L13.7561 31.6588L17.6441 31.8028L16.365 35.4595C14.8361 35.4595 12.9557 35.3939 12.087 35.2226Z" fill="#F7782B" stroke="black" stroke-width="0.864"/>
<path id="Vector 2246" d="M20.6682 35.1873L21.6041 31.7313L25.4201 31.2993L24.7913 34.9494C23.3321 35.1153 22.032 35.0673 20.6682 35.1873Z" fill="#F7782B" stroke="black" stroke-width="0.864"/>
<path id="Vector 2247" d="M29.2361 34.3234L29.6682 30.5793L33.4121 29.6434L33.2429 33.5775C31.7561 33.8914 30.6761 34.1074 29.2361 34.3234Z" fill="#F7782B" stroke="black" stroke-width="0.864"/>
<g id="Vector 2248">
<path d="M37.3001 32.3789L36.8681 28.6349L40.0361 27.3389L41.6921 30.6509L37.3001 32.3789Z" fill="#F7782B"/>
<path d="M45.0761 28.6349L42.9161 25.8989L45.0761 24.1709L48.2441 26.1869L45.0761 28.6349Z" fill="#F7782B"/>
<path d="M37.3001 32.3789L36.8681 28.6349L40.0361 27.3389L41.6921 30.6509L37.3001 32.3789Z" stroke="black" stroke-width="0.864"/>
<path d="M45.0761 28.6349L42.9161 25.8989L45.0761 24.1709L48.2441 26.1869L45.0761 28.6349Z" stroke="black" stroke-width="0.864"/>
</g>
</g>
<g id="Group 33660">
<path id="Vector 2250" d="M94.5401 9.55471L94.6842 9.05078C95.4907 9.05078 95.9322 9.24273 96.0521 9.33871L95.9081 9.84271C95.6201 9.61231 94.8761 9.55471 94.5401 9.55471Z" fill="#1F41AB"/>
<path id="Vector 2234_2" d="M116.097 34.8646C111.541 53.3128 89.9098 56.5261 80.6161 56.1045C78.6791 65.4346 69.7956 63.2503 66.6581 62.0598C69.4665 60.2635 68.1662 57.8692 69.3951 55.7395C70.3782 54.0356 72.7417 53.5058 74.2786 53.6408C69.0565 51.874 69.5147 49.2725 70.2821 46.6297C70.8818 44.5647 69.9809 43.0661 69.5201 42.6796C78.8588 43.3364 79.7586 46.596 80.2761 50.0829C80.297 50.2239 80.4178 50.3021 80.5484 50.245C81.5331 49.8144 85.145 47.8104 83.3316 43.8432C83.3197 43.8172 83.3045 43.7903 83.2885 43.7666C72.9395 28.4545 74.2377 20.1501 79.66 12.1063C85.6474 3.22425 96.5958 3.07342 101.529 3.98931C106.462 4.9052 121.661 12.3367 116.097 34.8646Z" fill="#8FC9FF" stroke="black" stroke-width="1.07434" stroke-linejoin="round"/>
<path id="Vector 2237_2" d="M119.891 44.0361C126.993 40.7718 117.969 35.1725 112.857 32.9915L108.319 35.8156L103.478 38.2618C105.809 41.2706 112.79 47.3005 119.891 44.0361Z" fill="#8FC9FF"/>
<path id="Vector 2236_2" d="M73.2226 36.7515C74.7866 39.4875 78.6236 39.7609 80.3465 39.5556L76.5016 31.7752C74.757 32.294 71.6587 34.0154 73.2226 36.7515Z" fill="#8FC9FF" stroke="black" stroke-width="1.07434"/>
<path id="Vector 2235_2" d="M113.434 33.4129C118.545 35.5938 126.993 40.7718 119.891 44.0362C112.79 47.3005 106.353 42.0992 104.023 39.0904" stroke="black" stroke-width="1.07434" stroke-linecap="round"/>
<circle id="Ellipse 728_2" cx="1.8801" cy="1.8801" r="1.8801" transform="matrix(-0.996185 0.0872718 0.0872718 0.996185 87.5458 15.6631)" fill="black"/>
<circle id="Ellipse 729_2" cx="1.8801" cy="1.8801" r="1.8801" transform="matrix(-0.996185 0.0872718 0.0872718 0.996185 102.118 17.3516)" fill="black"/>
<path id="Vector 2238_2" d="M99.7268 25.4475C98.1492 26.417 94.2388 27.5864 91.2191 24.5078C89.7247 25.4026 86.2573 26.3444 84.3425 22.9533" stroke="black" stroke-width="1.07434" stroke-linecap="round" stroke-linejoin="round"/>
<path id="Vector 2242_2" d="M100.52 39.5325C101.859 49.6247 91.1995 52.4622 84.306 52.8259C83.8198 52.8515 83.5767 52.2522 83.9019 51.8898C89.456 45.7022 83.9174 41.6839 83.3283 35.6467C82.6695 28.8967 98.7339 26.0742 100.52 39.5325Z" fill="white"/>
<path id="Vector 2249" d="M97.4201 13.0825C90.3353 11.3545 82.5161 11.7865 79.4921 12.2185C82.1081 8.45049 90.1193 1.53367 101.236 4.01047C112.353 6.48727 116.044 15.5065 116.5 19.7065C113.092 18.2185 104.505 14.8105 97.4201 13.0825Z" fill="#1F94FF" stroke="black" stroke-width="1.008"/>
<ellipse id="Ellipse 730" cx="91.2255" cy="8.84149" rx="3.528" ry="2.304" transform="rotate(3.70282 91.2255 8.84149)" fill="#2161CA"/>
<ellipse id="Ellipse 731" cx="99.4007" cy="10.1554" rx="3.528" ry="2.304" transform="rotate(11.7987 99.4007 10.1554)" fill="#2161CA"/>
<ellipse id="Ellipse 732" cx="91.577" cy="8.87573" rx="3.17361" ry="2.07256" transform="rotate(3.70282 91.577 8.87573)" fill="#1F41AB"/>
<ellipse id="Ellipse 733" cx="99.0064" cy="10.1445" rx="3.17361" ry="2.07256" transform="rotate(11.7987 99.0064 10.1445)" fill="#1F41AB"/>
</g>
</g>
</svg>
