<svg width="22" height="22" viewBox="0 0 22 22" fill="none" xmlns="http://www.w3.org/2000/svg">
<g id="Group 33659">
<path id="Vector 2234" d="M2.84327 12.4436C5.04111 18.8702 12.8433 19.3396 16.1393 18.8996C17.12 22.1613 20.215 21.1064 21.295 20.5847C20.239 20.0327 20.6273 19.1396 20.1233 18.4196C19.7201 17.8436 18.862 17.7287 18.319 17.8247C20.1233 17.0327 19.879 16.1207 19.5233 15.2036C19.2454 14.487 19.5194 13.9254 19.6714 13.7734C16.3667 14.2985 16.148 15.4872 16.0725 16.7449C16.0694 16.7958 16.0288 16.8272 15.9806 16.8107C15.6203 16.6869 14.2954 16.0845 14.7897 14.62C14.7933 14.6094 14.7982 14.5984 14.8036 14.5886C18.01 8.81454 17.2887 5.89836 15.1073 3.20361C12.6983 0.227794 8.79527 0.51561 7.06727 0.99561C5.33927 1.47561 0.159393 4.5958 2.84327 12.4436Z" fill="current" stroke="#0A0A0A" stroke-width="0.384" stroke-linejoin="round"/>
<path id="Vector 2237" d="M1.77831 15.8278C-0.852093 14.887 2.1863 12.6118 3.9383 11.6758L5.6423 12.5398L7.4423 13.2598C6.7063 14.4038 4.40871 16.7686 1.77831 15.8278Z" fill="current"/>
<path id="Vector 2236" d="M18.1681 11.7779C17.6966 12.8009 16.3389 13.0179 15.719 12.9985L16.8453 10.1083C17.4827 10.2386 18.6396 10.7549 18.1681 11.7779Z" fill="current" stroke="#0A0A0A" stroke-width="0.384"/>
<path id="Vector 2235" d="M3.74629 11.8438C1.99429 12.7798 -0.85211 14.887 1.77829 15.8278C4.40869 16.7686 6.53829 14.7158 7.27429 13.5718" stroke="#0A0A0A" stroke-width="0.384" stroke-linecap="round"/>
<circle id="Ellipse 728" cx="13.0823" cy="5.38684" r="0.672" fill="#0A0A0A"/>
<circle id="Ellipse 729" cx="7.94629" cy="6.44348" r="0.672" fill="#0A0A0A"/>
<path id="Vector 2238" d="M8.3783 8.57894C8.9703 8.87494 10.3991 9.16934 11.3783 7.97894C11.9383 8.25094 13.2023 8.47814 13.7783 7.21094" stroke="#0A0A0A" stroke-width="0.384" stroke-linecap="round" stroke-linejoin="round"/>
<path id="Vector 2242" d="M8.53537 13.6193C8.37338 17.2546 12.2572 17.9324 14.7231 17.8468C14.897 17.8408 14.9649 17.6198 14.8378 17.501C12.6672 15.471 14.5139 13.8675 14.5354 11.6995C14.5594 9.27549 8.75138 8.7716 8.53537 13.6193Z" fill="white"/>
</g>
</svg>
